<svg viewBox="0 0 1000 1000" xmlns="http://www.w3.org/2000/svg"><defs><clipPath id="c"><path fill="currentColor" d="M867 663.5Q761 827 579.5 887T243 823Q88 699 70.5 492t160-301.5q177.5-94.5 361-65t282.5 202q99 172.5-7 336Z"/></clipPath><pattern id="a" patternUnits="userSpaceOnUse" width="30" height="30" viewBox="0 0 100 100" fill="#4e2f51"><circle cx="50" cy="50" r="12.5"/></pattern><filter id="b" x="-50vw" y="-50vh" width="100vw" height="100vh"><feFlood flood-color="#fff" result="neutral-gray"/><feTurbulence type="fractalNoise" baseFrequency="2.5" numOctaves="100" stitchTiles="stitch" result="noise"/><feColorMatrix in="noise" type="saturate" values="0" result="destaturatedNoise"/><feComponentTransfer in="desaturatedNoise" result="theNoise"><feFuncA type="table" tableValues="0 0 0.15 0"/></feComponentTransfer><feBlend in="SourceGraphic" in2="theNoise" mode="soft-light" result="noisy-image"/></filter></defs><path fill="url(#a)" d="M867 663.5Q761 827 579.5 887T243 823Q88 699 70.5 492t160-301.5q177.5-94.5 361-65t282.5 202q99 172.5-7 336Z" transform="translate(-60 -60)"/><g filter="url(#b)" clip-path="url(#c)"><path fill="#4e2f51" d="M867 663.5Q761 827 579.5 887T243 823Q88 699 70.5 492t160-301.5q177.5-94.5 361-65t282.5 202q99 172.5-7 336Z"/></g></svg>