<svg width="33" height="33" viewBox="0 0 33 33" fill="none" xmlns="http://www.w3.org/2000/svg">
<path d="M30.25 8.25V11.5775C30.25 13.75 28.875 15.125 26.7025 15.125H22V5.51375C22 3.9875 23.2513 2.75 24.7775 2.75C26.2763 2.76375 27.6512 3.36875 28.6412 4.35875C29.6312 5.3625 30.25 6.7375 30.25 8.25Z" stroke="#FFA16C" stroke-width="1.5" stroke-miterlimit="10" stroke-linecap="round" stroke-linejoin="round"/>
<path d="M2.75 9.625V28.875C2.75 30.0162 4.0425 30.6625 4.95 29.975L7.30125 28.215C7.85125 27.8025 8.62125 27.8575 9.11625 28.3525L11.3988 30.6488C11.935 31.185 12.815 31.185 13.3513 30.6488L15.6613 28.3388C16.1425 27.8575 16.9125 27.8025 17.4488 28.215L19.8 29.975C20.7075 30.6487 22 30.0025 22 28.875V5.5C22 3.9875 23.2375 2.75 24.75 2.75H8.25C4.125 2.75 2.75 5.21125 2.75 8.25V9.625Z" stroke="#FFA16C" stroke-width="1.5" stroke-miterlimit="10" stroke-linecap="round" stroke-linejoin="round"/>
<path d="M8.25 12.375H16.5M9.28125 17.875H15.4688" stroke="#FFA16C" stroke-width="1.5" stroke-linecap="round" stroke-linejoin="round"/>
</svg>
