<svg width="33" height="33" viewBox="0 0 33 33" fill="none" xmlns="http://www.w3.org/2000/svg">
<path d="M12.4025 3.90498L4.99125 9.67998C3.75375 10.6425 2.75 12.6912 2.75 14.245V24.4337C2.75 27.6237 5.34875 30.2362 8.53875 30.2362H24.4612C27.6512 30.2362 30.25 27.6237 30.25 24.4475V14.4375C30.25 12.7737 29.1362 10.6425 27.775 9.69373L19.2775 3.73998C17.3525 2.39248 14.2587 2.46123 12.4025 3.90498Z" stroke="#FFA16C" stroke-width="1.5" stroke-linecap="round" stroke-linejoin="round"/>
<path d="M16.5 12.375V24.75M10.3125 18.5625H22.6875M14.4375 24.75H18.5625C20.8312 24.75 22.6875 22.8937 22.6875 20.625V16.5C22.6875 14.2313 20.8312 12.375 18.5625 12.375H14.4375C12.1688 12.375 10.3125 14.2313 10.3125 16.5V20.625C10.3125 22.8937 12.1688 24.75 14.4375 24.75Z" stroke="#FFA16C" stroke-width="1.5" stroke-linecap="round" stroke-linejoin="round"/>
</svg>
