<svg width="30" height="28" viewBox="0 0 30 28" fill="none" xmlns="http://www.w3.org/2000/svg">
<path d="M3.73477 0L0 4.88281V6.25015C0 10.156 6.09961 10.156 6.09961 6.25015C6.09961 10.156 11.9502 10.156 11.9502 6.25015C11.9502 10.156 18.0498 10.156 18.0498 6.25015C18.0498 10.156 23.901 10.156 23.901 6.25015C23.901 10.156 30 10.156 30 6.25015V4.88281L26.2658 0H3.73477ZM6.03811 8.5938C5.85119 8.85427 5.66427 9.04916 5.47795 9.24467C4.79358 9.83058 3.92169 10.0911 3.05041 10.0911C2.80138 10.0911 2.55236 10.0911 2.36604 10.0261V27.7996H27.5743V10.0261C27.3252 10.0911 27.1383 10.0911 26.8893 10.0911C26.018 10.0911 25.1467 9.83058 24.4618 9.24467C24.2754 9.04916 24.0885 8.85364 23.9022 8.5938C23.7147 8.85427 23.5899 9.04916 23.3414 9.24467C22.6565 9.83058 21.7858 10.0911 20.976 10.0911C20.1053 10.0911 19.2334 9.83058 18.6106 9.24467C18.4242 9.04916 18.2373 8.85364 18.0504 8.5938C17.8635 8.85427 17.6772 9.04916 17.4903 9.24467C16.6817 9.89554 15.8098 10.156 14.9385 10.156C14.0672 10.156 13.1959 9.89554 12.511 9.30963C12.324 9.11412 12.1377 8.91923 11.9508 8.65876C11.7639 8.91923 11.6397 9.11475 11.3906 9.30963C10.7057 9.89554 9.83439 10.156 9.0252 10.156C8.15392 10.156 7.28263 9.89554 6.66037 9.30963C6.47345 9.11412 6.28713 8.91923 6.10021 8.65876L6.03811 8.5938ZM9.39904 11.2629C10.8305 11.2629 11.4527 11.6539 12.1998 13.2161H17.7393C18.051 11.6539 18.6733 11.2629 20.5407 11.2629C21.9715 11.2629 24.399 12.6952 24.7729 14.7134L26.6403 22.3309C27.0135 24.2841 25.9559 25.7158 24.0885 25.7158C22.7813 25.7158 21.1008 24.8044 19.9811 22.3309H10.0213C8.90099 24.8694 7.22052 25.7158 5.91329 25.7158C4.04591 25.7158 2.9877 24.2835 3.36154 22.3309L5.22893 14.7134C5.60216 12.6952 8.02971 11.2629 9.46115 11.2629H9.39904ZM14.9385 13.932L10.5194 18.8148H12.3867V21.2883H17.553V18.8804H19.4197L14.9385 13.932Z" fill="#F7E5E6"/>
</svg>
