<svg width="28" height="28" viewBox="0 0 28 28" fill="none" xmlns="http://www.w3.org/2000/svg">
<g clip-path="url(#clip0_246_174)">
<path d="M5.48456 0C2.46848 0 0 2.46842 0 5.48456V22.5041C0 25.5202 2.46842 27.9878 5.48456 27.9878H22.5041C25.5202 27.9878 27.9878 25.5202 27.9878 22.5041V5.48456C27.9878 2.46848 25.5202 0 22.5041 0H5.48456ZM6.864 4.61854C8.31015 4.61854 9.20091 5.56791 9.22841 6.81584C9.22841 8.03622 8.31009 9.01228 6.83603 9.01228H6.8089C5.39028 9.01228 4.47336 8.03628 4.47336 6.81584C4.47336 5.56794 5.41803 4.61854 6.86398 4.61854H6.864ZM19.3262 10.4512C22.1075 10.4512 24.1924 12.269 24.1924 16.1754V23.468H19.9657V16.6644C19.9657 14.9547 19.354 13.7883 17.8244 13.7883C16.6566 13.7883 15.9606 14.5744 15.655 15.3339C15.5434 15.6056 15.5159 15.9851 15.5159 16.3652V23.468H11.2893C11.2893 23.468 11.3447 11.9428 11.2893 10.7495H15.5168V12.5506C16.0785 11.684 17.0832 10.4512 19.3262 10.4512V10.4512ZM4.72268 10.7504H8.94936V23.4681H4.72268V10.7504Z" fill="#F7E5E6"/>
</g>
<defs>
<clipPath id="clip0_246_174">
<rect width="28" height="28" fill="white"/>
</clipPath>
</defs>
</svg>
