<?xml version="1.0" encoding="UTF-8"?><svg id="a" xmlns="http://www.w3.org/2000/svg" viewBox="0 0 102 102"><defs><style>.b{stroke-width:4.01px;}.b,.c{fill:none;stroke:#f8a06d;stroke-miterlimit:10;}.c{stroke-width:4.1013px;}</style></defs><polygon class="b" points="12.0883 28.0157 52.1257 52.4891 89.9117 28.0157 51 3.9987 12.0883 28.0157"/><path class="c" d="M51.4608,96.9304l.7168-44.4413-.7168,44.4413Z"/><polyline class="c" points="91.7037 28.0157 89.4431 71.5047 51 98.0013 12.0883 73.5047 10.2963 28.0157"/><path class="c" d="M71.3531,67.8667c-4.6413-1.0076-7.8419-3.7697-8.0211-6.6954-.0199-.3241-.1293-2.7553,1.7222-4.0556,1.2846-.9021,3.0739-.9513,4.6667-.1667,1.0131-1.9873,2.9097-3.1078,4.6111-2.8333,2.596,.4188,3.3492,3.8611,3.3889,4.0556,.6656,3.2641-1.8731,7.1286-6.3677,9.6954Z"/><path class="c" d="M30.0504,67.8667c4.6413-1.0076,7.8419-3.7697,8.0211-6.6954,.0199-.3241,.1293-2.7553-1.7222-4.0556-1.2846-.9021-3.0739-.9513-4.6667-.1667-1.0131-1.9873-2.9097-3.1078-4.6111-2.8333-2.596,.4188-3.3492,3.8611-3.3889,4.0556-.6656,3.2641,1.8731,7.1286,6.3677,9.6954Z"/></svg>