<svg width="50" height="50" viewBox="0 0 50 50" fill="none" xmlns="http://www.w3.org/2000/svg">
<path d="M26.2796 50C19.2405 50 12.6358 47.2717 7.68193 42.3181C2.72808 37.3644 6.15464e-07 30.7593 6.15464e-07 23.7201C-0.0010502 18.8641 1.34351 14.1029 3.88444 9.96476C6.42537 5.82665 10.0633 2.47358 14.3944 0.277707C14.84 0.0505622 15.3426 -0.0403063 15.8395 0.0164444C16.3364 0.0731951 16.8056 0.275051 17.1885 0.596814C17.5714 0.918577 17.851 1.34599 17.9925 1.82571C18.134 2.30542 18.131 2.81618 17.984 3.29423C16.7481 7.2862 16.6267 11.54 17.6327 15.596C18.6388 19.652 20.7342 23.3559 23.6925 26.3075C25.8154 28.4463 28.3415 30.1426 31.1245 31.2985C33.9074 32.4544 36.8921 33.0467 39.9055 33.0413C42.2108 33.0431 44.5032 32.6973 46.7054 32.0157C47.1834 31.8686 47.6942 31.8655 48.174 32.007C48.6538 32.1484 49.0813 32.4281 49.4031 32.811C49.7249 33.194 49.9267 33.6632 49.9835 34.1602C50.0402 34.6572 49.9492 35.1598 49.722 35.6054C47.5261 39.9365 44.173 43.5745 40.0349 46.1154C35.8968 48.6564 31.1356 50.001 26.2796 50V50ZM14.3034 4.14289C10.9449 6.18635 8.17055 9.06198 6.24878 12.4916C4.327 15.9212 3.32283 19.7887 3.3334 23.7201C3.3334 36.3727 13.627 46.6666 26.2796 46.6666C30.211 46.6772 34.0785 45.673 37.5082 43.7513C40.9378 41.8295 43.8134 39.0551 45.8569 35.6966C43.9054 36.1482 41.9088 36.3758 39.9057 36.375V36.375C36.4544 36.3816 33.036 35.7035 29.8484 34.3801C26.6609 33.0566 23.7675 31.1141 21.3358 28.6649C18.1767 25.5118 15.8732 21.6057 14.6428 17.3152C13.4124 13.0248 13.2956 8.49161 14.3034 4.14352V4.14289Z" fill="black"/>
</svg>
