<svg width="50" height="50" viewBox="0 0 50 50" fill="none" xmlns="http://www.w3.org/2000/svg">
<path d="M25.0001 9.1665C16.2696 9.1665 9.16675 16.2693 9.16675 24.9998C9.16675 33.7304 16.2696 40.8332 25.0001 40.8332C33.7306 40.8332 40.8334 33.7304 40.8334 24.9998C40.8334 16.2693 33.7306 9.1665 25.0001 9.1665ZM25.0001 37.4998C22.5278 37.4998 20.1111 36.7667 18.0555 35.3932C15.9998 34.0197 14.3977 32.0675 13.4516 29.7834C12.5055 27.4993 12.258 24.986 12.7403 22.5612C13.2226 20.1364 14.4131 17.9092 16.1612 16.161C17.9094 14.4128 20.1367 13.2223 22.5615 12.74C24.9862 12.2577 27.4995 12.5052 29.7836 13.4513C32.0677 14.3974 34.0199 15.9996 35.3935 18.0552C36.767 20.1108 37.5001 22.5276 37.5001 24.9998C37.4963 28.3139 36.1782 31.4911 33.8348 33.8345C31.4914 36.1779 28.3141 37.4961 25.0001 37.4998Z" fill="black"/>
<path d="M26.6666 0H23.3333V5H26.6666V0Z" fill="black"/>
<path d="M26.6666 45H23.3333V50H26.6666V45Z" fill="black"/>
<path d="M50 23.3335H45V26.6668H50V23.3335Z" fill="black"/>
<path d="M5 23.3335H0V26.6668H5V23.3335Z" fill="black"/>
<path d="M41.1786 38.8217L38.8215 41.1787L42.1549 44.5121L44.5119 42.155L41.1786 38.8217Z" fill="black"/>
<path d="M7.84538 5.48812L5.48828 7.84521L8.82163 11.1786L11.1787 8.82146L7.84538 5.48812Z" fill="black"/>
<path d="M8.82132 38.8214L5.48804 42.1548L7.8451 44.5118L11.1784 41.1784L8.82132 38.8214Z" fill="black"/>
<path d="M42.1549 5.48794L38.8215 8.82129L41.1786 11.1784L44.512 7.84504L42.1549 5.48794Z" fill="black"/>
</svg>
